<svg width="525" height="110" viewBox="0 0 525 110" fill="none" xmlns="http://www.w3.org/2000/svg">
<path d="M125.9 90.03C120.956 90.03 116.561 89.412 112.716 88.176C108.871 86.94 105.266 84.8457 101.901 81.893C100.047 80.245 99.12 78.4253 99.12 76.434C99.12 74.8547 99.7037 73.4813 100.871 72.314C102.038 71.078 103.446 70.46 105.094 70.46C106.399 70.46 107.566 70.872 108.596 71.696C111.343 73.962 114.021 75.61 116.63 76.64C119.239 77.67 122.329 78.185 125.9 78.185C129.745 78.185 133.041 77.3267 135.788 75.61C138.603 73.8933 140.011 71.7647 140.011 69.224C140.011 66.134 138.638 63.7307 135.891 62.014C133.144 60.2287 128.784 58.8897 122.81 57.997C107.772 55.7997 100.253 48.7957 100.253 36.985C100.253 32.659 101.386 28.9167 103.652 25.758C105.918 22.5307 109.008 20.093 112.922 18.445C116.836 16.7283 121.196 15.87 126.003 15.87C130.329 15.87 134.38 16.5223 138.157 17.827C142.002 19.1317 145.195 20.8483 147.736 22.977C149.727 24.5563 150.723 26.376 150.723 28.436C150.723 30.0153 150.139 31.423 148.972 32.659C147.805 33.8263 146.431 34.41 144.852 34.41C143.822 34.41 142.895 34.101 142.071 33.483C140.286 32.041 137.779 30.7363 134.552 29.569C131.393 28.333 128.544 27.715 126.003 27.715C121.677 27.715 118.312 28.539 115.909 30.187C113.574 31.7663 112.407 33.8607 112.407 36.47C112.407 39.4227 113.609 41.6543 116.012 43.165C118.484 44.6757 122.329 45.9117 127.548 46.873C133.453 47.903 138.157 49.242 141.659 50.89C145.23 52.4693 147.908 54.6667 149.693 57.482C151.478 60.2287 152.371 63.9023 152.371 68.503C152.371 72.829 151.135 76.64 148.663 79.936C146.26 83.1633 143.032 85.6697 138.981 87.455C134.93 89.1717 130.569 90.03 125.9 90.03ZM189.727 77.361C190.688 77.361 191.547 77.8417 192.302 78.803C193.126 79.6957 193.538 80.8973 193.538 82.408C193.538 84.262 192.508 85.8413 190.448 87.146C188.457 88.382 186.191 89 183.65 89C179.393 89 175.788 88.1073 172.835 86.322C169.951 84.468 168.509 80.5883 168.509 74.683V46.255H163.771C162.123 46.255 160.75 45.7057 159.651 44.607C158.552 43.5083 158.003 42.135 158.003 40.487C158.003 38.9077 158.552 37.603 159.651 36.573C160.75 35.4743 162.123 34.925 163.771 34.925H168.509V28.333C168.509 26.5477 169.093 25.0713 170.26 23.904C171.496 22.668 173.007 22.05 174.792 22.05C176.509 22.05 177.951 22.668 179.118 23.904C180.285 25.0713 180.869 26.5477 180.869 28.333V34.925H188.182C189.83 34.925 191.203 35.4743 192.302 36.573C193.401 37.6717 193.95 39.045 193.95 40.693C193.95 42.2723 193.401 43.6113 192.302 44.71C191.203 45.74 189.83 46.255 188.182 46.255H180.869V74.168C180.869 75.61 181.247 76.6743 182.002 77.361C182.757 77.979 183.787 78.288 185.092 78.288C185.641 78.288 186.397 78.1507 187.358 77.876C188.182 77.5327 188.972 77.361 189.727 77.361ZM249.898 32.865C251.683 32.865 253.159 33.4487 254.327 34.616C255.494 35.7833 256.078 37.294 256.078 39.148V82.717C256.078 84.5023 255.494 86.013 254.327 87.249C253.159 88.4163 251.683 89 249.898 89C248.112 89 246.636 88.4163 245.469 87.249C244.37 86.0817 243.786 84.6053 243.718 82.82C242.001 84.8113 239.666 86.528 236.714 87.97C233.83 89.3433 230.774 90.03 227.547 90.03C222.809 90.03 218.517 88.8283 214.672 86.425C210.826 83.953 207.771 80.554 205.505 76.228C203.307 71.902 202.209 66.9923 202.209 61.499C202.209 56.0057 203.307 51.096 205.505 46.77C207.702 42.3753 210.689 38.9763 214.466 36.573C218.311 34.101 222.534 32.865 227.135 32.865C230.431 32.865 233.521 33.483 236.405 34.719C239.289 35.8863 241.726 37.397 243.718 39.251V39.148C243.718 37.3627 244.301 35.8863 245.469 34.719C246.636 33.483 248.112 32.865 249.898 32.865ZM229.092 78.7C233.555 78.7 237.194 77.0863 240.01 73.859C242.825 70.563 244.233 66.443 244.233 61.499C244.233 56.555 242.825 52.435 240.01 49.139C237.194 45.843 233.555 44.195 229.092 44.195C224.697 44.195 221.092 45.843 218.277 49.139C215.461 52.435 214.054 56.555 214.054 61.499C214.054 66.443 215.427 70.563 218.174 73.859C220.989 77.0863 224.628 78.7 229.092 78.7ZM298.106 32.865C300.166 32.865 301.883 33.4487 303.256 34.616C304.698 35.7833 305.419 37.1567 305.419 38.736C305.419 40.8647 304.87 42.4783 303.771 43.577C302.673 44.607 301.368 45.122 299.857 45.122C298.827 45.122 297.66 44.8817 296.355 44.401C296.149 44.3323 295.669 44.195 294.913 43.989C294.227 43.783 293.471 43.68 292.647 43.68C290.862 43.68 289.145 44.2293 287.497 45.328C285.849 46.4267 284.476 48.109 283.377 50.375C282.347 52.5723 281.832 55.216 281.832 58.306V82.717C281.832 84.5023 281.249 86.013 280.081 87.249C278.914 88.4163 277.438 89 275.652 89C273.867 89 272.391 88.4163 271.223 87.249C270.056 86.013 269.472 84.5023 269.472 82.717V40.178C269.472 38.3927 270.056 36.9163 271.223 35.749C272.391 34.513 273.867 33.895 275.652 33.895C277.438 33.895 278.914 34.513 280.081 35.749C281.249 36.9163 281.832 38.3927 281.832 40.178V41.517C283.412 38.7017 285.678 36.573 288.63 35.131C291.583 33.6203 294.742 32.865 298.106 32.865ZM340.707 77.361C341.668 77.361 342.526 77.8417 343.282 78.803C344.106 79.6957 344.518 80.8973 344.518 82.408C344.518 84.262 343.488 85.8413 341.428 87.146C339.436 88.382 337.17 89 334.629 89C330.372 89 326.767 88.1073 323.815 86.322C320.931 84.468 319.489 80.5883 319.489 74.683V46.255H314.751C313.103 46.255 311.729 45.7057 310.631 44.607C309.532 43.5083 308.983 42.135 308.983 40.487C308.983 38.9077 309.532 37.603 310.631 36.573C311.729 35.4743 313.103 34.925 314.751 34.925H319.489V28.333C319.489 26.5477 320.072 25.0713 321.24 23.904C322.476 22.668 323.986 22.05 325.772 22.05C327.488 22.05 328.93 22.668 330.098 23.904C331.265 25.0713 331.849 26.5477 331.849 28.333V34.925H339.162C340.81 34.925 342.183 35.4743 343.282 36.573C344.38 37.6717 344.93 39.045 344.93 40.693C344.93 42.2723 344.38 43.6113 343.282 44.71C342.183 45.74 340.81 46.255 339.162 46.255H331.849V74.168C331.849 75.61 332.226 76.6743 332.982 77.361C333.737 77.979 334.767 78.288 336.072 78.288C336.621 78.288 337.376 78.1507 338.338 77.876C339.162 77.5327 339.951 77.361 340.707 77.361ZM397.169 33.895C398.954 33.895 400.431 34.513 401.598 35.749C402.765 36.9163 403.349 38.3927 403.349 40.178V66.34C403.349 73.756 401.289 79.5583 397.169 83.747C393.118 87.9357 387.315 90.03 379.762 90.03C372.209 90.03 366.406 87.9357 362.355 83.747C358.304 79.5583 356.278 73.756 356.278 66.34V40.178C356.278 38.3927 356.862 36.9163 358.029 35.749C359.196 34.513 360.673 33.895 362.458 33.895C364.243 33.895 365.72 34.513 366.887 35.749C368.054 36.9163 368.638 38.3927 368.638 40.178V66.34C368.638 70.5287 369.565 73.653 371.419 75.713C373.273 77.7043 376.054 78.7 379.762 78.7C383.539 78.7 386.354 77.7043 388.208 75.713C390.062 73.653 390.989 70.5287 390.989 66.34V40.178C390.989 38.3927 391.573 36.9163 392.74 35.749C393.907 34.513 395.384 33.895 397.169 33.895ZM445.261 32.865C449.999 32.865 454.291 34.101 458.136 36.573C461.981 38.9763 465.003 42.341 467.2 46.667C469.466 50.993 470.599 55.9027 470.599 61.396C470.599 66.8893 469.5 71.8333 467.303 76.228C465.106 80.554 462.084 83.953 458.239 86.425C454.462 88.8283 450.274 90.03 445.673 90.03C442.377 90.03 439.253 89.3777 436.3 88.073C433.416 86.6997 431.013 85.0517 429.09 83.129V103.317C429.09 105.102 428.506 106.579 427.339 107.746C426.172 108.982 424.695 109.6 422.91 109.6C421.125 109.6 419.648 109.016 418.481 107.849C417.314 106.682 416.73 105.171 416.73 103.317V40.178C416.73 38.3927 417.314 36.9163 418.481 35.749C419.648 34.513 421.125 33.895 422.91 33.895C424.695 33.895 426.172 34.513 427.339 35.749C428.506 36.9163 429.09 38.3927 429.09 40.178V40.59C430.738 38.53 433.038 36.7447 435.991 35.234C438.944 33.6547 442.034 32.865 445.261 32.865ZM443.716 78.7C448.111 78.7 451.716 77.052 454.531 73.756C457.346 70.46 458.754 66.34 458.754 61.396C458.754 56.452 457.346 52.3663 454.531 49.139C451.784 45.843 448.179 44.195 443.716 44.195C439.253 44.195 435.613 45.843 432.798 49.139C429.983 52.3663 428.575 56.452 428.575 61.396C428.575 66.34 429.983 70.46 432.798 73.756C435.613 77.052 439.253 78.7 443.716 78.7ZM477.711 80.451C477.093 79.627 476.784 78.597 476.784 77.361C476.784 75.5757 477.677 74.065 479.462 72.829C480.423 72.211 481.419 71.902 482.449 71.902C483.891 71.902 485.264 72.5543 486.569 73.859C488.629 75.9877 490.758 77.567 492.955 78.597C495.221 79.627 497.933 80.142 501.092 80.142C506.448 79.936 509.126 77.9103 509.126 74.065C509.126 72.0737 508.199 70.563 506.345 69.533C504.56 68.503 501.744 67.473 497.899 66.443C493.916 65.3443 490.655 64.2457 488.114 63.147C485.642 62.0483 483.479 60.4003 481.625 58.203C479.84 55.937 478.947 52.9157 478.947 49.139C478.947 45.843 479.874 42.9933 481.728 40.59C483.651 38.118 486.123 36.2297 489.144 34.925C492.234 33.5517 495.496 32.865 498.929 32.865C502.431 32.865 505.933 33.5173 509.435 34.822C512.937 36.1267 515.684 38.0493 517.675 40.59C518.568 41.6887 519.014 42.9247 519.014 44.298C519.014 45.8773 518.362 47.182 517.057 48.212C516.096 48.9673 514.997 49.345 513.761 49.345C512.25 49.345 511.014 48.8643 510.053 47.903C508.817 46.3923 507.203 45.1907 505.212 44.298C503.289 43.4053 501.092 42.959 498.62 42.959C493.401 42.959 490.792 44.8473 490.792 48.624C490.792 50.1347 491.273 51.3707 492.234 52.332C493.195 53.2247 494.397 53.9457 495.839 54.495C497.35 54.9757 499.444 55.5937 502.122 56.349C505.83 57.379 508.92 58.4433 511.392 59.542C513.864 60.6407 515.958 62.323 517.675 64.589C519.392 66.855 520.25 69.842 520.25 73.55C520.25 76.9147 519.254 79.8673 517.263 82.408C515.272 84.88 512.697 86.7683 509.538 88.073C506.448 89.3777 503.255 90.03 499.959 90.03C495.427 90.03 491.204 89.2747 487.29 87.764C483.376 86.2533 480.183 83.8157 477.711 80.451Z" fill="#008AFF"/>
<path d="M75.2595 16.7458C74.7681 16.2594 74.0436 15.9808 73.4204 16.001C59.0971 16.2696 42.3875 24.6294 31.778 36.7741C20.2971 37.1845 10.7212 40.645 4.7477 46.6185C4.09918 47.267 3.85091 48.2145 4.09918 49.0961C4.34744 49.9776 5.0517 50.6566 5.94849 50.8744L16.7353 53.4584L16.6694 53.5293C15.7676 54.5274 15.8081 56.0626 16.7606 57.0151L34.9852 75.2397C35.4766 75.7362 36.1251 75.9794 36.7787 75.9794C37.3867 75.9794 37.9896 75.7666 38.471 75.3309L38.5419 75.265L41.1259 86.0518C41.3387 86.9435 42.0176 87.6529 42.9043 87.9011C43.1322 87.967 43.3602 87.9974 43.5933 87.9974C44.257 87.9974 44.9005 87.739 45.3869 87.2577C51.3655 81.2791 54.8209 71.7032 55.2313 60.2223C67.3911 49.5774 75.7358 32.888 76.0043 18.5799C76.0094 17.8959 75.7459 17.2322 75.2595 16.7458Z" fill="#008AFF"/>
<path d="M8.69457 68.4251C5.29488 71.8248 0.942678 85.9454 0.106689 88.7422C-0.16184 89.6339 0.086423 90.6016 0.740014 91.2603C1.22641 91.7416 1.86987 92 2.53359 92C2.77679 92 3.01998 91.9645 3.26318 91.8936C6.05994 91.0576 20.1755 86.7105 23.5802 83.3057C27.6842 79.2018 27.6842 72.5291 23.5802 68.4201C19.4662 64.3161 12.7884 64.3212 8.69457 68.4251V68.4251Z" fill="#FFBE3D"/>
</svg>
